<?xml version="1.0" encoding="UTF-8"?>
<svg version="1.1" xmlns="http://www.w3.org/2000/svg" width="500" height="500">
<path d="M0 0 C0.80793503 -0.00970322 1.61587006 -0.01940643 2.44828796 -0.02940369 C5.06323243 -0.05431328 7.67791744 -0.06693482 10.29296875 -0.07421875 C11.1859668 -0.07683716 12.07896484 -0.07945557 12.99902344 -0.08215332 C28.17065256 -0.08691315 42.60523848 1.0563686 57.48046875 4.23828125 C58.24069336 4.39312988 59.00091797 4.54797852 59.78417969 4.70751953 C64.41592969 5.66812363 68.95552996 6.85735836 73.48046875 8.23828125 C74.20766113 8.45790527 74.93485352 8.6775293 75.68408203 8.90380859 C100.95730338 16.72130554 124.61770664 29.03537696 145.48046875 45.23828125 C147.69944473 46.84832894 149.92053489 48.4546699 152.15234375 50.046875 C152.80976562 50.63662109 152.80976562 50.63662109 153.48046875 51.23828125 C153.48046875 51.89828125 153.48046875 52.55828125 153.48046875 53.23828125 C154.09921875 53.54765625 154.71796875 53.85703125 155.35546875 54.17578125 C156.73046875 54.86328125 158.10546875 55.55078125 159.48046875 56.23828125 C159.48046875 56.89828125 159.48046875 57.55828125 159.48046875 58.23828125 C160.14046875 58.23828125 160.80046875 58.23828125 161.48046875 58.23828125 C161.48046875 58.89828125 161.48046875 59.55828125 161.48046875 60.23828125 C162.063125 60.49609375 162.64578125 60.75390625 163.24609375 61.01953125 C165.66075905 62.33662142 167.29787052 63.78916509 169.23046875 65.73828125 C169.8440625 66.34671875 170.45765625 66.95515625 171.08984375 67.58203125 C172.48046875 69.23828125 172.48046875 69.23828125 172.48046875 71.23828125 C173.14046875 71.23828125 173.80046875 71.23828125 174.48046875 71.23828125 C177.48046875 74.69981971 177.48046875 74.69981971 177.48046875 77.23828125 C178.14046875 77.23828125 178.80046875 77.23828125 179.48046875 77.23828125 C181.07451463 79.05610665 182.53372339 80.8697604 183.98046875 82.80078125 C184.6458667 83.6837085 184.6458667 83.6837085 185.32470703 84.58447266 C186.72347555 86.45954385 188.10518991 88.34592501 189.48046875 90.23828125 C189.89393555 90.80498535 190.30740234 91.37168945 190.73339844 91.95556641 C198.92821279 103.3335726 205.28569426 115.68677739 211.48046875 128.23828125 C211.81062988 128.90182617 212.14079102 129.56537109 212.48095703 130.24902344 C220.78474831 147.22034556 225.30143092 166.68629519 228.48046875 185.23828125 C228.5976123 185.90794922 228.71475586 186.57761719 228.83544922 187.26757812 C232.62848616 210.19488014 231.88820887 235.50294272 227.48046875 258.23828125 C227.3088623 259.14046387 227.13725586 260.04264648 226.96044922 260.97216797 C224.31555048 274.49447869 220.45564114 287.39645647 215.48046875 300.23828125 C215.23184082 300.88200684 214.98321289 301.52573242 214.72705078 302.18896484 C193.66818748 355.79728604 149.93101731 398.32348403 97.6171875 421.421875 C85.56108328 426.5488819 73.18879378 430.12399829 60.48046875 433.23828125 C59.20429688 433.55667969 57.928125 433.87507813 56.61328125 434.203125 C2.94177472 446.66036843 -55.85271033 435.24870173 -102.70703125 407.11328125 C-104.65965718 405.84459649 -106.59735078 404.55263709 -108.51953125 403.23828125 C-109.06544922 402.87057617 -109.61136719 402.50287109 -110.17382812 402.12402344 C-123.39844317 393.17621022 -135.06778126 382.84649535 -146.39453125 371.61328125 C-147.19858398 370.81857422 -148.00263672 370.02386719 -148.83105469 369.20507812 C-149.57129883 368.46064453 -150.31154297 367.71621094 -151.07421875 366.94921875 C-152.07171143 365.94834229 -152.07171143 365.94834229 -153.08935547 364.92724609 C-154.51953125 363.23828125 -154.51953125 363.23828125 -154.51953125 361.23828125 C-155.17953125 361.23828125 -155.83953125 361.23828125 -156.51953125 361.23828125 C-158.17329987 359.3365985 -159.6983404 357.43830468 -161.20703125 355.42578125 C-161.65618896 354.83265137 -162.10534668 354.23952148 -162.56811523 353.62841797 C-166.52426606 348.34459057 -170.09483556 342.88073142 -173.51953125 337.23828125 C-174.23490399 336.09717122 -174.95109363 334.95657304 -175.66796875 333.81640625 C-196.9736142 299.58255563 -208.00863312 259.59845425 -207.89453125 219.36328125 C-207.89332275 218.56391144 -207.89211426 217.76454163 -207.89086914 216.94094849 C-207.76250494 185.36609438 -201.01752785 154.85004449 -187.51953125 126.23828125 C-187.20016602 125.54879395 -186.88080078 124.85930664 -186.55175781 124.14892578 C-179.96300747 110.01823025 -171.8586683 96.9273426 -162.33203125 84.59375 C-160.99569308 82.85708639 -159.73504636 81.06155392 -158.51953125 79.23828125 C-157.85953125 79.23828125 -157.19953125 79.23828125 -156.51953125 79.23828125 C-156.29910156 78.70074219 -156.07867187 78.16320312 -155.8515625 77.609375 C-154.06901822 74.43634163 -151.68361615 71.93523611 -149.20703125 69.30078125 C-148.49643555 68.53217773 -148.49643555 68.53217773 -147.77148438 67.74804688 C-146.36515257 66.23397967 -144.94508502 64.73424498 -143.51953125 63.23828125 C-142.61847656 62.28824219 -141.71742188 61.33820313 -140.7890625 60.359375 C-138.51953125 58.23828125 -138.51953125 58.23828125 -136.51953125 58.23828125 C-136.51953125 57.57828125 -136.51953125 56.91828125 -136.51953125 56.23828125 C-131.04334077 51.23828125 -131.04334077 51.23828125 -128.51953125 51.23828125 C-128.51953125 50.57828125 -128.51953125 49.91828125 -128.51953125 49.23828125 C-127.04418945 47.92382812 -127.04418945 47.92382812 -125.0078125 46.45703125 C-123.90493896 45.65845703 -123.90493896 45.65845703 -122.77978516 44.84375 C-122.03390137 44.31394531 -121.28801758 43.78414062 -120.51953125 43.23828125 C-119.88837402 42.78066406 -119.2572168 42.32304688 -118.60693359 41.8515625 C-99.73760992 28.31606027 -78.71470071 17.16464486 -56.51953125 10.23828125 C-55.80104004 10.00850586 -55.08254883 9.77873047 -54.34228516 9.54199219 C-41.6457631 5.54035354 -28.66107734 3.25120418 -15.51953125 1.23828125 C-14.43542969 1.06176025 -13.35132813 0.88523926 -12.234375 0.70336914 C-8.13152002 0.18970335 -4.12969844 0.04132365 0 0 Z " fill="#045D62" transform="translate(238.51953125,30.76171875)"/>
<path d="M0 0 C0.33 0 0.66 0 1 0 C3.1336546 8.89554731 3.37244393 17.61109536 3.37060547 26.70410156 C3.37495525 29.10034604 3.41132112 31.49470723 3.44921875 33.890625 C3.62588209 58.11747269 -4.4068108 82.28049489 -21.1484375 100.20703125 C-36.92325751 115.48264809 -55.03747855 121.33445336 -76.55493164 121.38061523 C-82.28224189 121.2796716 -87.44658486 120.40096245 -93 119 C-87.2267253 99.29618685 -66.08543274 83.79377256 -49.63671875 72.890625 C-48 72 -48 72 -46 72 C-46 71.34 -46 70.68 -46 70 C-44.23645665 68.44273602 -42.41336392 66.95239767 -40.5625 65.5 C-36.723054 62.71660656 -36.723054 62.71660656 -34 59 C-33.34 59 -32.68 59 -32 59 C-31.71125 58.4225 -31.4225 57.845 -31.125 57.25 C-30.08333333 55.16666667 -29.04166667 53.08333333 -28 51 C-28.75603516 51.83917969 -28.75603516 51.83917969 -29.52734375 52.6953125 C-37.77259588 61.00738191 -47.59897151 66.09057906 -57.84375 71.60546875 C-68.16055097 76.99991342 -68.16055097 76.99991342 -77.18554688 84.20776367 C-79 86 -79 86 -81 86 C-81 86.66 -81 87.32 -81 88 C-82.66297943 89.33792935 -84.33034233 90.67041405 -86 92 C-95.0363007 102.37749561 -101.6801213 114.72616921 -108.125 126.8125 C-120.70175365 150.05829747 -120.70175365 150.05829747 -132 154 C-132 154.66 -132 155.32 -132 156 C-151.56746321 166.75135341 -172.46887148 169.60292033 -194.12890625 163.328125 C-204.18944073 160.05271933 -212.98135631 154.89481863 -221 148 C-221.96679688 147.24460937 -222.93359375 146.48921875 -223.9296875 145.7109375 C-227.24540045 142.94436997 -229.67075745 139.78260727 -232.125 136.25 C-232.56021973 135.62657715 -232.99543945 135.0031543 -233.44384766 134.36083984 C-236.60018027 129.7523315 -239.27228391 125.34250072 -241 120 C-241.36867187 118.90042969 -241.73734375 117.80085938 -242.1171875 116.66796875 C-247.29823224 99.76742281 -246.7408078 82.30117787 -240 66 C-239.62746094 65.07058594 -239.25492188 64.14117187 -238.87109375 63.18359375 C-232.49253383 48.98185232 -220.6463208 38.90158753 -207 32 C-205.88625 31.401875 -204.7725 30.80375 -203.625 30.1875 C-201 29 -201 29 -198 29 C-197.98541748 29.76143311 -197.97083496 30.52286621 -197.95581055 31.30737305 C-197.88119459 34.76791888 -197.78457741 38.22751445 -197.6875 41.6875 C-197.65366211 43.48477539 -197.65366211 43.48477539 -197.61914062 45.31835938 C-197.58369141 46.47529297 -197.54824219 47.63222656 -197.51171875 48.82421875 C-197.48553467 49.88729248 -197.45935059 50.95036621 -197.43237305 52.0456543 C-196.74645262 56.73245448 -194.85723961 59.26237522 -191.3125 62.3125 C-190.549375 62.869375 -189.78625 63.42625 -189 64 C-189.86625 64.61875 -190.7325 65.2375 -191.625 65.875 C-198.40540475 71.51462575 -202.54976204 80.24643502 -203.37109375 88.91796875 C-203.632096 98.02652305 -202.9472041 105.0739754 -198 113 C-197.56558594 113.73734375 -197.13117188 114.4746875 -196.68359375 115.234375 C-191.43461449 123.19009286 -182.87930869 127.23431369 -174 130 C-156.08805756 133.04245912 -138.26722093 130.46331089 -123 120 C-116.71587982 114.88788971 -107.96162318 107.50529269 -106.53125 99.31640625 C-106.5209375 98.40761719 -106.510625 97.49882812 -106.5 96.5625 C-105.65233335 81.65462342 -99.85587958 63.82227005 -89 53 C-88.34 53 -87.68 53 -87 53 C-87 52.34 -87 51.68 -87 51 C-86.34 51 -85.68 51 -85 51 C-85 50.34 -85 49.68 -85 49 C-83.07372261 47.46320503 -81.15960824 46.06747532 -79.125 44.6875 C-78.58875 44.30916016 -78.0525 43.93082031 -77.5 43.54101562 C-68.88270523 37.6191305 -59.77705908 34.06655524 -49.8125 31.0625 C-21.62248776 22.58995574 -21.62248776 22.58995574 -1.34375 2.2265625 C-0.9003125 1.49179688 -0.456875 0.75703125 0 0 Z " fill="#ADDBD7" transform="translate(371,200)"/>
<path d="M0 0 C10.03245923 -0.22848645 19.70358137 -0.21306697 29.52978516 2.06640625 C31.42277344 2.48599609 31.42277344 2.48599609 33.35400391 2.9140625 C42.0416548 4.91306466 50.35012629 7.47118558 58.52978516 11.06640625 C59.42826172 11.46085938 60.32673828 11.8553125 61.25244141 12.26171875 C73.47593702 18.27445444 84.68810536 28.29235264 91.52978516 40.06640625 C91.97322266 40.76765625 92.41666016 41.46890625 92.87353516 42.19140625 C96.81439703 48.72746984 99.20019367 55.82860648 101.52978516 63.06640625 C101.84173828 64.01128906 102.15369141 64.95617187 102.47509766 65.9296875 C105.24353773 75.43108134 105.24820685 85.24029418 105.52978516 95.06640625 C103.64259766 95.59427734 103.64259766 95.59427734 101.71728516 96.1328125 C93.13471685 98.58750114 84.71134226 101.15707567 76.52978516 104.75390625 C75.87880859 105.03886963 75.22783203 105.32383301 74.55712891 105.61743164 C71.22844384 107.12938612 68.42193624 108.85042938 65.52978516 111.06640625 C64.86978516 111.06640625 64.20978516 111.06640625 63.52978516 111.06640625 C63.52043945 110.29151855 63.51109375 109.51663086 63.50146484 108.71826172 C63.55527573 88.4708052 63.55527573 88.4708052 58.52978516 69.06640625 C58.06378906 67.91785156 58.06378906 67.91785156 57.58837891 66.74609375 C51.17416924 52.62946494 40.65940965 46.38989154 26.52978516 41.06640625 C2.74362889 33.04456496 -25.94046478 38.31947487 -48.04833984 48.7734375 C-53.80135532 51.64868251 -59.08661553 55.16376988 -64.33349609 58.8671875 C-66.99092887 60.73036888 -69.66426876 62.43969454 -72.47021484 64.06640625 C-73.03869141 63.050625 -73.60716797 62.03484375 -74.19287109 60.98828125 C-74.97265045 59.59756172 -75.7526113 58.20694395 -76.53271484 56.81640625 C-77.14083008 55.73117676 -77.14083008 55.73117676 -77.76123047 54.62402344 C-80.80802102 49.20245815 -83.94480744 43.84462779 -87.15771484 38.51953125 C-88.33401716 36.3209662 -89.01488626 34.50241415 -89.47021484 32.06640625 C-74.78400302 19.75498613 -57.32207573 10.19131614 -38.47021484 6.06640625 C-37.35646484 5.73640625 -36.24271484 5.40640625 -35.09521484 5.06640625 C-23.34108402 1.8238874 -12.15202034 0.32668013 0 0 Z " fill="#ADDBD7" transform="translate(226.47021484375,124.93359375)"/>
<path d="M0 0 C0.5775 0.226875 1.155 0.45375 1.75 0.6875 C1.42 1.3475 1.09 2.0075 0.75 2.6875 C0.66456105 4.79278933 0.64285275 6.90081157 0.65234375 9.0078125 C0.65484131 10.13977051 0.65733887 11.27172852 0.65991211 12.43798828 C0.66901611 13.88157715 0.67812012 15.32516602 0.6875 16.8125 C0.708125 21.39125 0.72875 25.97 0.75 30.6875 C15.6 31.1825 15.6 31.1825 30.75 31.6875 C31.1875 46.625 31.1875 46.625 31.31811523 51.34350586 C31.3752771 53.16700562 31.3752771 53.16700562 31.43359375 55.02734375 C31.48858032 56.90474243 31.48858032 56.90474243 31.54467773 58.82006836 C31.42803906 61.58380504 31.42803906 61.58380504 32.75 62.6875 C37.05647636 62.94092236 41.37445054 62.87272638 45.6875 62.875 C46.90630859 62.88724609 48.12511719 62.89949219 49.38085938 62.91210938 C50.54294922 62.91404297 51.70503906 62.91597656 52.90234375 62.91796875 C53.97476318 62.92207764 55.04718262 62.92618652 56.15209961 62.93041992 C58.91185604 62.95111323 58.91185604 62.95111323 60.75 60.6875 C61.12296556 57.67777343 61.12296556 57.67777343 61.1640625 54.1484375 C61.19967285 52.97587402 61.2352832 51.80331055 61.27197266 50.59521484 C61.32297119 48.351521 61.32297119 48.351521 61.375 46.0625 C61.49875 41.31875 61.6225 36.575 61.75 31.6875 C71.98 31.6875 82.21 31.6875 92.75 31.6875 C93.86444471 40.60305771 93.86444471 40.60305771 91 45.875 C86.7827454 54.34864846 84.79934787 62.49008138 84.5 71.9375 C84.03606598 78.60764568 81.27059499 81.97577691 76.75 86.6875 C76.04875 87.51121094 75.3475 88.33492188 74.625 89.18359375 C64.56185483 100.35164506 49.76365358 107.02231894 34.8046875 107.92578125 C20.85128711 108.3174729 7.40927802 106.02810624 -3.55859375 96.73046875 C-7.39225533 92.55054097 -10.05635843 87.89609917 -12.25 82.6875 C-12.60707031 81.95273437 -12.96414062 81.21796875 -13.33203125 80.4609375 C-16.10121862 72.0944565 -15.32620472 60.73814172 -11.5234375 52.8359375 C-8.40538193 47.5754143 -5.2819147 43.23369851 -0.25 39.6875 C-1.19875 38.945 -2.1475 38.2025 -3.125 37.4375 C-5.70317991 35.41979399 -7.00564896 33.72426988 -8.25 30.6875 C-8.50878906 28.09375 -8.50878906 28.09375 -8.515625 25.1875 C-8.51820313 24.135625 -8.52078125 23.08375 -8.5234375 22 C-8.51570312 20.906875 -8.50796875 19.81375 -8.5 18.6875 C-8.50773438 17.594375 -8.51546875 16.50125 -8.5234375 15.375 C-8.51957031 13.7971875 -8.51957031 13.7971875 -8.515625 12.1875 C-8.51224121 10.74890625 -8.51224121 10.74890625 -8.50878906 9.28125 C-8.13675072 5.55244305 -7.0518972 3.46266729 -4.375 0.875 C-2.25 -0.3125 -2.25 -0.3125 0 0 Z " fill="#055C62" transform="translate(181.25,224.3125)"/>
<path d="M0 0 C1.20978516 0.00322266 2.41957031 0.00644531 3.66601562 0.00976562 C5.47489258 -0.0144043 5.47489258 -0.0144043 7.3203125 -0.0390625 C9.0518457 -0.0400293 9.0518457 -0.0400293 10.81835938 -0.04101562 C11.87917725 -0.04399658 12.93999512 -0.04697754 14.03295898 -0.05004883 C16.72851562 0.32226562 16.72851562 0.32226562 18.57958984 1.43017578 C20.30998432 4.27984795 20.06483753 6.64969351 20.02148438 9.95898438 C20.00698242 11.90708008 20.00698242 11.90708008 19.9921875 13.89453125 C19.96712147 15.26628201 19.94172663 16.6380268 19.91601562 18.00976562 C19.90096582 19.39321486 19.88727793 20.77667964 19.875 22.16015625 C19.83958786 25.5479177 19.79019616 28.93489702 19.72851562 32.32226562 C20.5610083 32.30655518 21.39350098 32.29084473 22.2512207 32.2746582 C25.34299418 32.22349921 28.4345518 32.18590082 31.52661133 32.1574707 C33.52179263 32.13498229 35.51677775 32.09686365 37.51171875 32.05859375 C38.76533203 32.04892578 40.01894531 32.03925781 41.31054688 32.02929688 C42.4678833 32.01358643 43.62521973 31.99787598 44.81762695 31.98168945 C47.72851562 32.32226562 47.72851562 32.32226562 49.60253906 33.48925781 C52.12367849 37.59348913 51.19479209 43.09536155 51.16601562 47.75976562 C51.18599609 48.90509766 51.20597656 50.05042969 51.2265625 51.23046875 C51.2255957 52.88272461 51.2255957 52.88272461 51.22460938 54.56835938 C51.2264624 55.57568115 51.22831543 56.58300293 51.23022461 57.62084961 C50.57947176 61.12478161 49.63110663 62.2769243 46.72851562 64.32226562 C43.79589844 64.77636719 43.79589844 64.77636719 40.43164062 64.71289062 C39.22636719 64.7 38.02109375 64.68710937 36.77929688 64.67382812 C35.52503906 64.6403125 34.27078125 64.60679687 32.97851562 64.57226562 C31.70878906 64.55421875 30.4390625 64.53617187 29.13085938 64.51757812 C25.99598485 64.47043715 22.86263002 64.40464227 19.72851562 64.32226562 C19.74422607 65.18505127 19.75993652 66.04783691 19.77612305 66.93676758 C19.82727517 70.14035829 19.86487723 73.34374078 19.89331055 76.54760742 C19.90838959 77.93374482 19.92885613 79.31983457 19.95483398 80.70581055 C19.99125278 82.69884709 20.00664581 84.69223285 20.02148438 86.68554688 C20.03719482 87.88477783 20.05290527 89.08400879 20.0690918 90.31958008 C19.72851562 93.32226562 19.72851562 93.32226562 18.57958984 95.21435547 C15.93581024 96.79671789 13.8871424 96.69417033 10.81835938 96.68554688 C9.66400391 96.68490234 8.50964844 96.68425781 7.3203125 96.68359375 C6.11439453 96.66748047 4.90847656 96.65136719 3.66601562 96.63476562 C1.85133789 96.63959961 1.85133789 96.63959961 0 96.64453125 C-9.00458512 96.58916488 -9.00458512 96.58916488 -11.27148438 94.32226562 C-11.49853516 91.34130859 -11.49853516 91.34130859 -11.46679688 87.56445312 C-11.46396698 86.90140167 -11.46113708 86.23835022 -11.45822144 85.5552063 C-11.44701873 83.43570979 -11.42191488 81.31663458 -11.39648438 79.19726562 C-11.38645465 77.76107381 -11.37732879 76.32487537 -11.36914062 74.88867188 C-11.34707938 71.36639934 -11.31254931 67.84437359 -11.27148438 64.32226562 C-12.52022339 64.3458313 -12.52022339 64.3458313 -13.79418945 64.36987305 C-16.88596293 64.42103204 -19.97752055 64.45863043 -23.06958008 64.48706055 C-25.06476138 64.50954896 -27.0597465 64.5476676 -29.0546875 64.5859375 C-30.30830078 64.59560547 -31.56191406 64.60527344 -32.85351562 64.61523438 C-34.01085205 64.63094482 -35.16818848 64.64665527 -36.3605957 64.6628418 C-39.27148438 64.32226562 -39.27148438 64.32226562 -41.14770508 63.17114258 C-42.74548364 60.54242716 -42.6600883 58.51159342 -42.66992188 55.44726562 C-42.67378906 54.29742187 -42.67765625 53.14757812 -42.68164062 51.96289062 C-42.67003906 50.76148438 -42.6584375 49.56007812 -42.64648438 48.32226562 C-42.65808594 47.12085938 -42.6696875 45.91945312 -42.68164062 44.68164062 C-42.67777344 43.53179687 -42.67390625 42.38195312 -42.66992188 41.19726562 C-42.66653809 40.1428125 -42.6631543 39.08835938 -42.65966797 38.00195312 C-42.27148438 35.32226562 -42.27148438 35.32226562 -41.14770508 33.47338867 C-38.36150387 31.76396269 -36.10016758 31.98522468 -32.85351562 32.02929688 C-31.59990234 32.03896484 -30.34628906 32.04863281 -29.0546875 32.05859375 C-27.74435547 32.08373047 -26.43402344 32.10886719 -25.08398438 32.13476562 C-23.74871274 32.14981595 -22.41342501 32.16350376 -21.078125 32.17578125 C-17.80883861 32.21118868 -14.54036345 32.26057672 -11.27148438 32.32226562 C-11.28195801 31.4239502 -11.29243164 30.52563477 -11.30322266 29.60009766 C-11.33727908 26.27162115 -11.36237056 22.9433294 -11.38134766 19.61474609 C-11.391414 18.17331015 -11.40506818 16.73189467 -11.42236328 15.29052734 C-11.44658449 13.22032629 -11.45796079 11.15039486 -11.46679688 9.08007812 C-11.47727051 7.83371582 -11.48774414 6.58735352 -11.49853516 5.30322266 C-10.98104676 -1.49089924 -5.40982558 0.03326332 0 0 Z " fill="#ACDBD7" transform="translate(223.271484375,191.677734375)"/>
<path d="M0 0 C0 14.19 0 28.38 0 43 C-14.19 43 -28.38 43 -43 43 C-43 33.43 -43 23.86 -43 14 C-43.66 14 -44.32 14 -45 14 C-45.26425781 14.58523438 -45.52851563 15.17046875 -45.80078125 15.7734375 C-52.70688309 28.59584157 -70.79293598 37.55356668 -84 42 C-86.75388145 42.60431272 -89.17591585 42.88703663 -92 43 C-89.44123742 40.33462232 -86.75366293 37.83582938 -84 35.375 C-83.34 34.78460938 -82.68 34.19421875 -82 33.5859375 C-80 32 -80 32 -77.875 31.1015625 C-75.26028567 29.56541783 -75.01519485 27.80426773 -74 25 C-72.96597599 23.58754453 -71.87912248 22.21265411 -70.75 20.875 C-66.78178799 15.94177207 -63.87045012 10.62524108 -61 5 C-59.60386935 5.14295891 -58.20810692 5.28951558 -56.8125 5.4375 C-56.03519531 5.51871094 -55.25789063 5.59992188 -54.45703125 5.68359375 C-52 6 -52 6 -49.68310547 6.50927734 C-44.9278519 7.3789825 -40.13373018 7.18456202 -35.3125 7.1875 C-33.75499023 7.20586914 -33.75499023 7.20586914 -32.16601562 7.22460938 C-23.22268785 7.24143068 -15.09735825 6.40014029 -7 2.375 C-2.16763006 0 -2.16763006 0 0 0 Z " fill="#ADDCD8" transform="translate(333,321)"/>
<path d="M0 0 C0.66 0 1.32 0 2 0 C2 14.19 2 28.38 2 43 C-12.19 43 -26.38 43 -41 43 C-41 33.43 -41 23.86 -41 14 C-41.66 14 -42.32 14 -43 14 C-43.26425781 14.58523438 -43.52851563 15.17046875 -43.80078125 15.7734375 C-50.70688309 28.59584157 -68.79293598 37.55356668 -82 42 C-84.75388145 42.60431272 -87.17591585 42.88703663 -90 43 C-87.44123742 40.33462232 -84.75366293 37.83582938 -82 35.375 C-81.34 34.78460938 -80.68 34.19421875 -80 33.5859375 C-78 32 -78 32 -75.875 31.1015625 C-73.26028567 29.56541783 -73.01519485 27.80426773 -72 25 C-70.96597599 23.58754453 -69.87912248 22.21265411 -68.75 20.875 C-64.78178799 15.94177207 -61.87045012 10.62524108 -59 5 C-57.60386935 5.14295891 -56.20810692 5.28951558 -54.8125 5.4375 C-54.03519531 5.51871094 -53.25789063 5.59992188 -52.45703125 5.68359375 C-50 6 -50 6 -47.65039062 6.5 C-45.11243736 6.97878853 -42.71415054 7.2000061 -40.13671875 7.31640625 C-39.25048828 7.35830078 -38.36425781 7.40019531 -37.45117188 7.44335938 C-36.0831543 7.50233398 -36.0831543 7.50233398 -34.6875 7.5625 C-33.75615234 7.60568359 -32.82480469 7.64886719 -31.86523438 7.69335938 C-29.57695546 7.79897225 -27.28857628 7.90107752 -25 8 C-25 8.33 -25 8.66 -25 9 C-30.28 9 -35.56 9 -41 9 C-40.505 9.99 -40.505 9.99 -40 11 C-39.91413191 13.32416296 -39.89288957 15.65083307 -39.90234375 17.9765625 C-39.90484131 19.23033691 -39.90733887 20.48411133 -39.90991211 21.77587891 C-39.91901611 23.37608887 -39.92812012 24.97629883 -39.9375 26.625 C-39.958125 31.69875 -39.97875 36.7725 -40 42 C-26.47 42 -12.94 42 1 42 C0.505 21.21 0.505 21.21 0 0 Z " fill="#9BD1CD" transform="translate(331,321)"/>
<path d="M0 0 C0 0.99 0 1.98 0 3 C0.598125 2.79375 1.19625 2.5875 1.8125 2.375 C4 2 4 2 7 4 C-2.9 6.97 -2.9 6.97 -13 10 C-13 9.34 -13 8.68 -13 8 C-14.32 8 -15.64 8 -17 8 C-16.67 7.01 -16.34 6.02 -16 5 C-16.99 4.34 -17.98 3.68 -19 3 C-16.77739833 2.10374114 -14.54974666 1.23324447 -12.3125 0.375 C-11.68666016 0.11976563 -11.06082031 -0.13546875 -10.41601562 -0.3984375 C-6.21410875 -1.98240239 -3.94967749 -2.22027759 0 0 Z " fill="#0D6064" transform="translate(321,226)"/>
<path d="M0 0 C0 3.34419152 -0.47519394 4.06840321 -2.375 6.6875 C-2.81585938 7.31011719 -3.25671875 7.93273437 -3.7109375 8.57421875 C-4.13632812 9.04472656 -4.56171875 9.51523437 -5 10 C-5.66 10 -6.32 10 -7 10 C-7.2475 10.58265625 -7.495 11.1653125 -7.75 11.765625 C-9.18525446 14.33114236 -10.77663013 15.83724798 -13 17.75 C-14.051875 18.67039062 -14.051875 18.67039062 -15.125 19.609375 C-17 21 -17 21 -19 21 C-19 21.66 -19 22.32 -19 23 C-19.99 23.33 -20.98 23.66 -22 24 C-22.33 21.69 -22.66 19.38 -23 17 C-21.89205078 16.41605469 -21.89205078 16.41605469 -20.76171875 15.8203125 C-12.74022809 11.39677127 -6.53287422 6.39141434 0 0 Z " fill="#135D5F" transform="translate(344,249)"/>
<path d="M0 0 C0.66 0 1.32 0 2 0 C1.67 1.65 1.34 3.3 1 5 C0.34 5 -0.32 5 -1 5 C-1.268125 5.763125 -1.53625 6.52625 -1.8125 7.3125 C-2.97242259 9.93758796 -4.02464466 11.02464466 -6 13 C-6.71447643 15.10332891 -6.71447643 15.10332891 -7 17 C-7.66 17 -8.32 17 -9 17 C-9.0825 17.9075 -9.165 18.815 -9.25 19.75 C-10.1152855 23.49957052 -10.99747067 24.66469941 -14 27 C-16.75 28.25 -16.75 28.25 -19 29 C-17.38308266 24.15864866 -14.65560401 20.32412818 -11.75 16.1875 C-11.25636963 15.47916016 -10.76273926 14.77082031 -10.25415039 14.04101562 C-8.84269769 12.0225988 -7.42300776 10.0102808 -6 8 C-5.34386719 7.06800781 -4.68773438 6.13601562 -4.01171875 5.17578125 C-2.73218769 3.40729787 -1.37647454 1.69412251 0 0 Z " fill="#347376" transform="translate(80,110)"/>
<path d="M0 0 C0.598125 0.20625 1.19625 0.4125 1.8125 0.625 C-2.049748 4.00182885 -6.62856845 5.68907164 -11.3125 7.625 C-12.58867187 8.15673828 -12.58867187 8.15673828 -13.890625 8.69921875 C-28.29754298 14.625 -28.29754298 14.625 -34.1875 14.625 C-34.1875 13.965 -34.1875 13.305 -34.1875 12.625 C-32.58493892 12.11987756 -30.98038208 11.62108373 -29.375 11.125 C-28.48167969 10.8465625 -27.58835937 10.568125 -26.66796875 10.28125 C-24.1875 9.625 -24.1875 9.625 -21.1875 9.625 C-21.1875 8.305 -21.1875 6.985 -21.1875 5.625 C-21.8475 5.295 -22.5075 4.965 -23.1875 4.625 C-21.3125 4 -21.3125 4 -19.1875 3.625 C-18.5275 4.285 -17.8675 4.945 -17.1875 5.625 C-15.19936986 5.17606739 -13.20983617 4.71916182 -11.2578125 4.1328125 C-9.1875 3.625 -9.1875 3.625 -5.1875 3.625 C-5.1875 2.965 -5.1875 2.305 -5.1875 1.625 C-2.1875 -0.375 -2.1875 -0.375 0 0 Z " fill="#2D6A6E" transform="translate(345.1875,445.375)"/>
<path d="M0 0 C0.33 0 0.66 0 1 0 C1 9.57 1 19.14 1 29 C9.58 29 18.16 29 27 29 C23.2616322 30.8691839 22.05218095 31.25506466 18.12109375 31.265625 C16.73954102 31.26949219 16.73954102 31.26949219 15.33007812 31.2734375 C14.37552734 31.26570313 13.42097656 31.25796875 12.4375 31.25 C11.47908203 31.25773437 10.52066406 31.26546875 9.53320312 31.2734375 C8.61345703 31.27085937 7.69371094 31.26828125 6.74609375 31.265625 C5.90747803 31.26336914 5.0688623 31.26111328 4.20483398 31.25878906 C2 31 2 31 -1 29 C-1.34057617 26.70922852 -1.34057617 26.70922852 -1.29296875 23.87890625 C-1.28330078 22.86119141 -1.27363281 21.84347656 -1.26367188 20.79492188 C-1.23853516 19.72822266 -1.21339844 18.66152344 -1.1875 17.5625 C-1.17396484 16.49966797 -1.16042969 15.43683594 -1.14648438 14.34179688 C-1.12026455 12.3678189 -1.08790867 10.39390671 -1.04760742 8.42016602 C-1.01207265 6.61372379 -1 4.8067917 -1 3 C-0.67 2.01 -0.34 1.02 0 0 Z " fill="#0C5A5B" transform="translate(289,335)"/>
<path d="M0 0 C0.66 0 1.32 0 2 0 C2.04971951 4.57151738 2.08586976 9.14287468 2.10986328 13.71459961 C2.11987381 15.26736191 2.13348634 16.82010558 2.15087891 18.37280273 C2.17534652 20.61446755 2.18653268 22.85588149 2.1953125 25.09765625 C2.20563507 25.78336197 2.21595764 26.46906769 2.22659302 27.17555237 C2.22766334 31.85297079 1.44423099 35.6048403 0 40 C-0.33 40 -0.66 40 -1 40 C-0.67 26.8 -0.34 13.6 0 0 Z " fill="#3E7779" transform="translate(467,234)"/>
<path d="M0 0 C0.66 1.32 1.32 2.64 2 4 C1.01 4.66 0.02 5.32 -1 6 C0.98 5.67 2.96 5.34 5 5 C5.33 5.66 5.66 6.32 6 7 C-0.67862176 10.01651083 -6.63927766 12.57534294 -14 13 C-10.78105326 9.64693048 -7.31805468 6.62201707 -3.8046875 3.5859375 C-2.49559495 2.43552284 -1.23231027 1.23231027 0 0 Z " fill="#95D2D0" transform="translate(255,351)"/>
<path d="M0 0 C2.64 1.98 5.28 3.96 8 6 C5 9 2 12 -1 15 C-1.38133299 13.0085944 -1.71325582 11.00720923 -2 9 C-1.67 8.67 -1.34 8.34 -1 8 C-1.66 7.34 -2.32 6.68 -3 6 C-2.01 4.02 -1.02 2.04 0 0 Z " fill="#A1D7D4" transform="translate(174,257)"/>
<path d="M0 0 C0 0.99 0 1.98 0 3 C-0.99 3.495 -0.99 3.495 -2 4 C-2 4.66 -2 5.32 -2 6 C-5.4052641 9.69966733 -8.81298543 12.68563548 -14 13 C-14.33 14.32 -14.66 15.64 -15 17 C-16.65 17.33 -18.3 17.66 -20 18 C-18.38405168 15.95880212 -16.7143618 13.95927063 -15 12 C-14.34 12 -13.68 12 -13 12 C-13 11.34 -13 10.68 -13 10 C-7.52380952 5 -7.52380952 5 -5 5 C-5 4.34 -5 3.68 -5 3 C-2.5 1.375 -2.5 1.375 0 0 Z " fill="#407A7E" transform="translate(115,77)"/>
<path d="M0 0 C7.01834862 2.02752294 7.01834862 2.02752294 9 5 C9.1875 7.6875 9.1875 7.6875 9 10 C9.99 10.33 10.98 10.66 12 11 C11.01 11.66 10.02 12.32 9 13 C5.7 9.7 2.4 6.4 -1 3 C-0.67 2.01 -0.34 1.02 0 0 Z " fill="#135F63" transform="translate(87,393)"/>
<path d="M0 0 C-0.66 1.32 -1.32 2.64 -2 4 C-0.68 4 0.64 4 2 4 C1.67 4.99 1.34 5.98 1 7 C-1.75 7.75 -1.75 7.75 -5 8 C-7.375 6.0625 -7.375 6.0625 -9 4 C-8.67 3.01 -8.34 2.02 -8 1 C-5.29120665 -0.35439668 -2.99066732 -0.06501451 0 0 Z " fill="#0A575C" transform="translate(306,230)"/>
<path d="M0 0 C0.69921875 1.75 0.69921875 1.75 1 4 C-0.29296875 6 -0.29296875 6 -2.1875 8 C-2.83203125 8.6909375 -3.4765625 9.381875 -4.140625 10.09375 C-4.75421875 10.7228125 -5.3678125 11.351875 -6 12 C-6.804375 12.825 -7.60875 13.65 -8.4375 14.5 C-8.953125 14.995 -9.46875 15.49 -10 16 C-10.66 15.67 -11.32 15.34 -12 15 C-10.38462556 11.10082032 -7.72075127 8.28706228 -4.875 5.25 C-4.40707031 4.74339844 -3.93914062 4.23679687 -3.45703125 3.71484375 C-2.30873459 2.47280859 -1.15491328 1.23588506 0 0 Z " fill="#3D7578" transform="translate(94,95)"/>
<path d="M0 0 C2.475 0.99 2.475 0.99 5 2 C5 2.66 5 3.32 5 4 C5.66 4 6.32 4 7 4 C7 4.66 7 5.32 7 6 C7.598125 6.2475 8.19625 6.495 8.8125 6.75 C11.28647521 8.16370012 12.43370255 9.65055383 14 12 C11.0625 11.625 11.0625 11.625 8 11 C7.67 10.34 7.34 9.68 7 9 C5.68 9 4.36 9 3 9 C3 7.68 3 6.36 3 5 C2.01 4.67 1.02 4.34 0 4 C0 2.68 0 1.36 0 0 Z " fill="#276C6E" transform="translate(393,85)"/>
<path d="M0 0 C0.33 0.66 0.66 1.32 1 2 C1.7425 2.268125 2.485 2.53625 3.25 2.8125 C6.65439331 4.28257893 8.57308829 6.22638662 11 9 C11 9.66 11 10.32 11 11 C11.66 11 12.32 11 13 11 C12.67 12.32 12.34 13.64 12 15 C7.71 11.04 3.42 7.08 -1 3 C-0.67 2.01 -0.34 1.02 0 0 Z " fill="#2A6D71" transform="translate(99,405)"/>
<path d="M0 0 C0.33 0.66 0.66 1.32 1 2 C1.66 2.20625 2.32 2.4125 3 2.625 C3.66 3.07875 4.32 3.5325 5 4 C5.23225733 5.92441787 5.45347914 7.85157607 5.58984375 9.78515625 C6.20015466 13.08083518 7.98337612 15.31064104 9.85546875 18.03515625 C11.5891604 21.01142554 11.78706088 23.59297403 12 27 C10.04879916 25.04879916 9.27038776 23.72140347 8.125 21.26171875 C7.77953125 20.52373047 7.4340625 19.78574219 7.078125 19.02539062 C6.72234375 18.25388672 6.3665625 17.48238281 6 16.6875 C5.64421875 15.92759766 5.2884375 15.16769531 4.921875 14.38476562 C0 3.81559002 0 3.81559002 0 0 Z " fill="#417D7C" transform="translate(46,328)"/>
<path d="M0 0 C0 0.66 0 1.32 0 2 C-0.99 2.495 -0.99 2.495 -2 3 C-2.33 3.66 -2.66 4.32 -3 5 C-4 7 -4 7 -6 8 C-5.34 8.66 -4.68 9.32 -4 10 C-5.32 10 -6.64 10 -8 10 C-8.33 9.01 -8.66 8.02 -9 7 C-9.66 6.34 -10.32 5.68 -11 5 C-10.67 4.67 -10.34 4.34 -10 4 C-10.66 3.34 -11.32 2.68 -12 2 C-10.7625 1.67 -9.525 1.34 -8.25 1 C-7.55390625 0.814375 -6.8578125 0.62875 -6.140625 0.4375 C-4 0 -4 0 0 0 Z " fill="#136468" transform="translate(324,317)"/>
<path d="M0 0 C0.61875 0.350625 1.2375 0.70125 1.875 1.0625 C2.57625 1.371875 3.2775 1.68125 4 2 C4.66 1.67 5.32 1.34 6 1 C6.27714844 1.77085937 6.55429688 2.54171875 6.83984375 3.3359375 C7.20207031 4.33882813 7.56429687 5.34171875 7.9375 6.375 C8.29714844 7.37273437 8.65679687 8.37046875 9.02734375 9.3984375 C9.92349292 11.93504165 9.92349292 11.93504165 11 14 C10.34 14.66 9.68 15.32 9 16 C7.49445366 13.71180854 5.99542957 11.41978831 4.5 9.125 C4.07074219 8.47402344 3.64148438 7.82304687 3.19921875 7.15234375 C0 2.2265625 0 2.2265625 0 0 Z " fill="#327274" transform="translate(61,360)"/>
<path d="M0 0 C0.66 0.33 1.32 0.66 2 1 C2.12375 1.639375 2.2475 2.27875 2.375 2.9375 C2.80939427 5.19851273 2.80939427 5.19851273 5.0625 6.25 C5.701875 6.4975 6.34125 6.745 7 7 C3.535 8.485 3.535 8.485 0 10 C-0.33 9.01 -0.66 8.02 -1 7 C-1.99 6.34 -2.98 5.68 -4 5 C-3 2 -3 2 0 0 Z " fill="#126567" transform="translate(296,232)"/>
<path d="M0 0 C0.99 0.33 1.98 0.66 3 1 C3.33 1.99 3.66 2.98 4 4 C1 7 -2 10 -5 13 C-5.33 12.34 -5.66 11.68 -6 11 C-5.0390625 8.65234375 -5.0390625 8.65234375 -3.625 5.9375 C-2.93277344 4.58978516 -2.93277344 4.58978516 -2.2265625 3.21484375 C-1 1 -1 1 0 0 Z " fill="#A3D8D5" transform="translate(137,255)"/>
<path d="M0 0 C0.66 0 1.32 0 2 0 C0.46906512 4.67199091 -2.10757395 8.02170005 -5.125 11.8125 C-5.82689453 12.7087207 -5.82689453 12.7087207 -6.54296875 13.62304688 C-7.69005565 15.08616792 -8.84431234 16.54366297 -10 18 C-10.66 17.01 -11.32 16.02 -12 15 C-11.01 15 -10.02 15 -9 15 C-9 14.01 -9 13.02 -9 12 C-8.34 12 -7.68 12 -7 12 C-6.896875 11.360625 -6.79375 10.72125 -6.6875 10.0625 C-6.460625 9.381875 -6.23375 8.70125 -6 8 C-5.01 7.67 -4.02 7.34 -3 7 C-2.87625 6.21625 -2.7525 5.4325 -2.625 4.625 C-2 2 -2 2 0 0 Z " fill="#467D7C" transform="translate(429,372)"/>
<path d="M0 0 C0.33 0 0.66 0 1 0 C1.66 7.26 2.32 14.52 3 22 C0.74826418 18.62239627 0.1633205 16.01777776 -0.6875 12.0625 C-0.95949219 10.83660156 -1.23148438 9.61070312 -1.51171875 8.34765625 C-1.94600083 5.37021833 -2.09247282 3.74773468 -1 1 C-0.67 0.67 -0.34 0.34 0 0 Z " fill="#347374" transform="translate(36,284)"/>
<path d="M0 0 C1.15957207 3.47871621 0.77456651 4.34219645 -0.4375 7.6875 C-0.72496094 8.49574219 -1.01242187 9.30398438 -1.30859375 10.13671875 C-1.53675781 10.75160156 -1.76492188 11.36648438 -2 12 C-6 12 -6 12 -8 11 C-5.36 7.37 -2.72 3.74 0 0 Z " fill="#176669" transform="translate(258,334)"/>
<path d="M0 0 C3.0390625 0.2421875 3.0390625 0.2421875 6.625 0.875 C8.40777344 1.18050781 8.40777344 1.18050781 10.2265625 1.4921875 C11.14179688 1.65976562 12.05703125 1.82734375 13 2 C13 2.33 13 2.66 13 3 C15.97 3.495 15.97 3.495 19 4 C19 4.33 19 4.66 19 5 C11.65081658 5.43230491 5.09784913 3.81774185 -2 2 C-1.34 1.34 -0.68 0.68 0 0 Z " fill="#55858D" transform="translate(203,462)"/>
<path d="M0 0 C0.33 0 0.66 0 1 0 C1.3125 3.1875 1.3125 3.1875 1 7 C-1.5 9.9375 -1.5 9.9375 -4 12 C-4.99 11.67 -5.98 11.34 -7 11 C-5.85845641 9.16399255 -4.71165684 7.33125195 -3.5625 5.5 C-2.92441406 4.4790625 -2.28632813 3.458125 -1.62890625 2.40625 C-0.82259766 1.21515625 -0.82259766 1.21515625 0 0 Z " fill="#99D0D0" transform="translate(268,333)"/>
<path d="M0 0 C2.97 0.495 2.97 0.495 6 1 C6 1.66 6 2.32 6 3 C8.97 3.495 8.97 3.495 12 4 C12 4.66 12 5.32 12 6 C12.99 6 13.98 6 15 6 C15 6.99 15 7.98 15 9 C11.32305352 7.62859834 8.04681411 5.96304199 4.6875 3.9375 C3.80449219 3.41027344 2.92148438 2.88304687 2.01171875 2.33984375 C1.34785156 1.89769531 0.68398437 1.45554687 0 1 C0 0.67 0 0.34 0 0 Z " fill="#407A7C" transform="translate(127,431)"/>
<path d="M0 0 C0.99 0 1.98 0 3 0 C3.33951619 1.56116819 3.67132544 3.12401338 4 4.6875 C4.185625 5.55761719 4.37125 6.42773438 4.5625 7.32421875 C4.98972047 9.93712964 5.07616201 12.35813038 5 15 C2.82813579 12.82813579 2.3206752 11.50023469 1.375 8.625 C1.11460938 7.85414063 0.85421875 7.08328125 0.5859375 6.2890625 C0 4 0 4 0 0 Z " fill="#347578" transform="translate(41,313)"/>
<path d="M0 0 C0.8971875 0.309375 0.8971875 0.309375 1.8125 0.625 C-1.92864033 3.8781655 -6.50065138 6.06874911 -11.1875 7.625 C-13.1875 6.625 -13.1875 6.625 -14.1875 4.625 C-9.7325 4.13 -9.7325 4.13 -5.1875 3.625 C-5.1875 2.965 -5.1875 2.305 -5.1875 1.625 C-2.1875 -0.375 -2.1875 -0.375 0 0 Z " fill="#3B7C7E" transform="translate(345.1875,445.375)"/>
<path d="M0 0 C3.85703771 1.330013 6.31462944 4.01625493 9 7 C9 7.66 9 8.32 9 9 C8.01 9.33 7.02 9.66 6 10 C5.236875 9.071875 4.47375 8.14375 3.6875 7.1875 C1.88151448 5.01723899 0.0523371 2.94431935 -2 1 C-1.34 0.67 -0.68 0.34 0 0 Z " fill="#156165" transform="translate(306,148)"/>
<path d="M0 0 C0.66 0.33 1.32 0.66 2 1 C0.72995023 4.81014932 -0.51113397 5.17627457 -4 7 C-6.98357998 8.34971475 -8.70334304 9 -12 9 C-10.56351736 7.87370125 -9.12577415 6.7490101 -7.6875 5.625 C-6.88699219 4.99851562 -6.08648437 4.37203125 -5.26171875 3.7265625 C-3.55336788 2.42243282 -1.78827274 1.19218183 0 0 Z " fill="#53898B" transform="translate(128,67)"/>
<path d="M0 0 C1.60294922 0.01353516 1.60294922 0.01353516 3.23828125 0.02734375 C4.04652344 0.03894531 4.85476562 0.05054688 5.6875 0.0625 C5.3575 1.0525 5.0275 2.0425 4.6875 3.0625 C3.98882812 3.05089844 3.29015625 3.03929687 2.5703125 3.02734375 C1.66023437 3.01832031 0.75015625 3.00929687 -0.1875 3 C-1.09242188 2.98839844 -1.99734375 2.97679687 -2.9296875 2.96484375 C-5.3293585 2.90000743 -5.3293585 2.90000743 -7.3125 4.0625 C-7.3125 3.4025 -7.3125 2.7425 -7.3125 2.0625 C-8.6325 1.7325 -9.9525 1.4025 -11.3125 1.0625 C-7.47525828 0.15836327 -3.93747726 -0.04326898 0 0 Z " fill="#337578" transform="translate(221.3125,32.9375)"/>
<path d="M0 0 C0.99 0.33 1.98 0.66 3 1 C3 1.66 3 2.32 3 3 C-0.46153846 6 -0.46153846 6 -3 6 C-3.33 6.99 -3.66 7.98 -4 9 C-4.99 8.34 -5.98 7.68 -7 7 C-4.69 4.69 -2.38 2.38 0 0 Z " fill="#9CD3D2" transform="translate(259,309)"/>
<path d="M0 0 C0.33 0 0.66 0 1 0 C1.77040851 6.06696699 2.09706112 11.88514973 2 18 C1.34 18.33 0.68 18.66 0 19 C-0.95494281 12.42150508 -0.8931507 6.58183362 0 0 Z " fill="#3A7678" transform="translate(466,216)"/>
<path d="M0 0 C0.33 0.66 0.66 1.32 1 2 C2.98 2 4.96 2 7 2 C7 2.33 7 2.66 7 3 C6.09636719 3.20496094 5.19273437 3.40992188 4.26171875 3.62109375 C3.08222656 3.89050781 1.90273437 4.15992188 0.6875 4.4375 C-1.07013672 4.83775391 -1.07013672 4.83775391 -2.86328125 5.24609375 C-6.00236971 5.95313969 -6.00236971 5.95313969 -9 7 C-8 4 -8 4 -5 2 C-2.3125 1.875 -2.3125 1.875 0 2 C0 1.34 0 0.68 0 0 Z " fill="#9BD6D3" transform="translate(198,162)"/>
<path d="M0 0 C6.49850211 0.51553879 12.66226532 1.46667709 19 3 C15.84803039 4.86783385 13.65095648 5.35349654 10 5 C7.32421875 4.125 7.32421875 4.125 4.6875 3 C3.80449219 2.62875 2.92148437 2.2575 2.01171875 1.875 C1.34785156 1.58625 0.68398438 1.2975 0 1 C0 0.67 0 0.34 0 0 Z " fill="#558B8C" transform="translate(286,34)"/>
<path d="M0 0 C2.97 0 5.94 0 9 0 C9 0.66 9 1.32 9 2 C9.639375 2.12375 10.27875 2.2475 10.9375 2.375 C11.618125 2.58125 12.29875 2.7875 13 3 C13.33 3.66 13.66 4.32 14 5 C9.16371695 4.00956295 4.52381127 3.04301154 0 1 C0 0.67 0 0.34 0 0 Z " fill="#4C8384" transform="translate(171,454)"/>
<path d="M0 0 C0.66 0.33 1.32 0.66 2 1 C1.01 2.485 1.01 2.485 0 4 C-0.66 4 -1.32 4 -2 4 C-2 4.66 -2 5.32 -2 6 C-3.98 6.99 -5.96 7.98 -8 9 C-8.33 8.01 -8.66 7.02 -9 6 C-6.03 4.02 -3.06 2.04 0 0 Z " fill="#1C676B" transform="translate(272,350)"/>
<path d="M0 0 C0.66 0 1.32 0 2 0 C0.33846988 5.85659906 -1.47041916 11.4590134 -4 17 C-4.98120464 13.94736336 -4.98120464 12.05263664 -4 9 C-3.34 9 -2.68 9 -2 9 C-2.04125 8.2575 -2.0825 7.515 -2.125 6.75 C-1.99601866 3.91241048 -1.42948778 2.41226062 0 0 Z " fill="#41767C" transform="translate(455,321)"/>
<path d="M0 0 C0.66 0.33 1.32 0.66 2 1 C0.375 8.75 0.375 8.75 -3 11 C-4 8 -4 8 -3.22265625 5.95703125 C-2.83980469 5.24933594 -2.45695312 4.54164063 -2.0625 3.8125 C-1.68222656 3.09707031 -1.30195312 2.38164062 -0.91015625 1.64453125 C-0.60980469 1.10183594 -0.30945312 0.55914062 0 0 Z " fill="#29686E" transform="translate(55,149)"/>
<path d="M0 0 C0.66 0 1.32 0 2 0 C1.67 1.65 1.34 3.3 1 5 C0.34 5 -0.32 5 -1 5 C-1.2475 5.61875 -1.495 6.2375 -1.75 6.875 C-3.20628639 9.35068687 -4.37812506 9.95125002 -7 11 C-5.25731793 7.03935893 -2.85325271 3.25563451 0 0 Z " fill="#558D8F" transform="translate(80,110)"/>
<path d="M0 0 C0 0.66 0 1.32 0 2 C-1.60256108 2.50512244 -3.20711792 3.00391627 -4.8125 3.5 C-6.15248047 3.91765625 -6.15248047 3.91765625 -7.51953125 4.34375 C-10 5 -10 5 -13 5 C-13 4.34 -13 3.68 -13 3 C-11.39743892 2.49487756 -9.79288208 1.99608373 -8.1875 1.5 C-7.29417969 1.2215625 -6.40085937 0.943125 -5.48046875 0.65625 C-3 0 -3 0 0 0 Z " fill="#4B7D7F" transform="translate(324,455)"/>
<path d="M0 0 C0 0.66 0 1.32 0 2 C-0.99 2 -1.98 2 -3 2 C-3.33 3.32 -3.66 4.64 -4 6 C-5.875 6.625 -5.875 6.625 -8 7 C-8.66 6.34 -9.32 5.68 -10 5 C-8.71186658 4.16121545 -7.41936744 3.32913217 -6.125 2.5 C-5.40570313 2.0359375 -4.68640625 1.571875 -3.9453125 1.09375 C-2 0 -2 0 0 0 Z " fill="#3E7E81" transform="translate(140,61)"/>
<path d="M0 0 C-0.33 0.99 -0.66 1.98 -1 3 C-4.3 3.33 -7.6 3.66 -11 4 C-5.15789474 -1.84210526 -5.15789474 -1.84210526 0 0 Z " fill="#357377" transform="translate(151,57)"/>
<path d="M0 0 C1.65 0 3.3 0 5 0 C4.51917969 0.53109375 4.03835937 1.0621875 3.54296875 1.609375 C1.61619553 4.59465402 1.5041576 6.72350016 1.3125 10.25 C1.24675781 11.32765625 1.18101562 12.4053125 1.11328125 13.515625 C1.07589844 14.33546875 1.03851563 15.1553125 1 16 C0.67 16 0.34 16 0 16 C0 10.72 0 5.44 0 0 Z " fill="#0A5959" transform="translate(243,256)"/>
<path d="M0 0 C0 4.29788387 -2.00515674 6.9889684 -5 10 C-7.8125 10.4375 -7.8125 10.4375 -10 10 C-6.66666667 6.66666667 -3.33333333 3.33333333 0 0 Z " fill="#397673" transform="translate(344,249)"/>
<path d="M0 0 C0.66 0.33 1.32 0.66 2 1 C1.67 2.32 1.34 3.64 1 5 C-1.875 5.125 -1.875 5.125 -5 5 C-5.66 4.34 -6.32 3.68 -7 3 C-4.69631264 1.93347808 -2.35981813 0.93578995 0 0 Z " fill="#39767B" transform="translate(166,47)"/>
<path d="M0 0 C1.98 0.66 3.96 1.32 6 2 C5.01 2.495 5.01 2.495 4 3 C4.33 4.65 4.66 6.3 5 8 C3.02 6.35 1.04 4.7 -1 3 C-0.67 2.01 -0.34 1.02 0 0 Z " fill="#216A6C" transform="translate(87,393)"/>
<path d="M0 0 C0.33 0.66 0.66 1.32 1 2 C3.01669827 3.13350534 3.01669827 3.13350534 5 4 C5 6.64 5 9.28 5 12 C1.94063363 8.24532309 0 4.91886939 0 0 Z " fill="#347073" transform="translate(46,328)"/>
<path d="M0 0 C-1.57725347 0.70133599 -3.16211333 1.385583 -4.75 2.0625 C-5.63171875 2.44535156 -6.5134375 2.82820313 -7.421875 3.22265625 C-10.15256309 4.04600008 -11.36901347 3.9773992 -14 3 C-3.71052632 -1.23684211 -3.71052632 -1.23684211 0 0 Z " fill="#0E5B5D" transform="translate(331,322)"/>
<path d="M0 0 C0.33 1.32 0.66 2.64 1 4 C0.01 5.485 0.01 5.485 -1 7 C-1.66 7 -2.32 7 -3 7 C-3 7.66 -3 8.32 -3 9 C-4.32 8.67 -5.64 8.34 -7 8 C-4.69 5.36 -2.38 2.72 0 0 Z " fill="#206B6D" transform="translate(356,291)"/>
<path d="M0 0 C0.87398438 0.31904297 0.87398438 0.31904297 1.765625 0.64453125 C-0.234375 2.14453125 -0.234375 2.14453125 -2.234375 3.64453125 C-2.915 4.20140625 -3.595625 4.75828125 -4.296875 5.33203125 C-6.234375 6.64453125 -6.234375 6.64453125 -9.234375 6.64453125 C-9.234375 5.98453125 -9.234375 5.32453125 -9.234375 4.64453125 C-7.84375 3.3203125 -7.84375 3.3203125 -5.984375 1.95703125 C-5.38109375 1.49941406 -4.7778125 1.04179687 -4.15625 0.5703125 C-2.234375 -0.35546875 -2.234375 -0.35546875 0 0 Z " fill="#97D1D2" transform="translate(319.234375,276.35546875)"/>
<path d="M0 0 C0.33 0.66 0.66 1.32 1 2 C0.67 2.66 0.34 3.32 0 4 C0.99 4.33 1.98 4.66 3 5 C1.35 5.66 -0.3 6.32 -2 7 C-2.99 6.01 -3.98 5.02 -5 4 C-3.35 2.68 -1.7 1.36 0 0 Z " fill="#9CD0CC" transform="translate(333,264)"/>
<path d="M0 0 C-4.455 2.97 -4.455 2.97 -9 6 C-9.33 5.01 -9.66 4.02 -10 3 C-9 1 -9 1 -6.125 -0.1875 C-3 -1 -3 -1 0 0 Z " fill="#A0D6D5" transform="translate(172,177)"/>
<path d="M0 0 C6.27 0.33 12.54 0.66 19 1 C19 1.33 19 1.66 19 2 C13.06 2.33 7.12 2.66 1 3 C0.67 2.01 0.34 1.02 0 0 Z " fill="#257071" transform="translate(205,124)"/>
<path d="M0 0 C3.8088684 0.67215325 7.41388869 1.53295446 11 3 C11.33 3.99 11.66 4.98 12 6 C6 4 6 4 0 2 C0 1.34 0 0.68 0 0 Z " fill="#8ECDCA" transform="translate(166,357)"/>
<path d="M0 0 C0.33 0.99 0.66 1.98 1 3 C0.00390625 4.82421875 0.00390625 4.82421875 -1.4375 6.6875 C-1.91058594 7.31011719 -2.38367188 7.93273437 -2.87109375 8.57421875 C-3.24363281 9.04472656 -3.61617188 9.51523437 -4 10 C-5 7 -5 7 -4.25 4.4375 C-3 2 -3 2 0 0 Z " fill="#9CD7D4" transform="translate(361,281)"/>
<path d="M0 0 C-1 2 -2 4 -3 6 C-5.97 5.505 -5.97 5.505 -9 5 C-2.87096774 0 -2.87096774 0 0 0 Z " fill="#1C696B" transform="translate(178,174)"/>
<path d="M0 0 C2.71224618 1.61268692 5.37352812 3.24901874 8 5 C7.67 5.66 7.34 6.32 7 7 C5.02 6.34 3.04 5.68 1 5 C0.67 3.35 0.34 1.7 0 0 Z " fill="#397876" transform="translate(384,77)"/>
<path d="M0 0 C-1 3 -1 3 -4 5 C-4.99 5 -5.98 5 -7 5 C-7 3.68 -7 2.36 -7 1 C-4 0 -4 0 0 0 Z " fill="#296C6D" transform="translate(186,41)"/>
<path d="M0 0 C1.65 0 3.3 0 5 0 C5.33 0.66 5.66 1.32 6 2 C6.99 2.33 7.98 2.66 9 3 C9 3.66 9 4.32 9 5 C5.65626525 4.44271087 2.96687001 3.64826111 0 2 C0 1.34 0 0.68 0 0 Z " fill="#3B787B" transform="translate(162,449)"/>
<path d="M0 0 C0 0.66 0 1.32 0 2 C0.99 2.33 1.98 2.66 3 3 C2.67 3.66 2.34 4.32 2 5 C-3.75 3.25 -3.75 3.25 -6 1 C-4 0 -4 0 0 0 Z " fill="#2D7275" transform="translate(151,441)"/>
<path d="M0 0 C2.88575819 0.39803561 3.82189513 0.79009069 5.75 3.0625 C6.1625 3.701875 6.575 4.34125 7 5 C5.68 5.33 4.36 5.66 3 6 C3 5.34 3 4.68 3 4 C2.34 4 1.68 4 1 4 C0.67 2.68 0.34 1.36 0 0 Z " fill="#146366" transform="translate(144,344)"/>
<path d="M0 0 C0.66 0.66 1.32 1.32 2 2 C-0.31 3.65 -2.62 5.3 -5 7 C-6.32 6.34 -7.64 5.68 -9 5 C-6.03 3.35 -3.06 1.7 0 0 Z " fill="#19666A" transform="translate(339,308)"/>
<path d="M0 0 C1 3 1 3 -0.125 5.5625 C-2.23794891 8.30933359 -3.72518425 9.02640613 -7 10 C-5.33248852 6.05860922 -2.77289351 3.2107188 0 0 Z " fill="#92D0CE" transform="translate(145,245)"/>
<path d="M0 0 C0.33 0 0.66 0 1 0 C1.13277344 0.84304687 1.26554688 1.68609375 1.40234375 2.5546875 C1.57894531 3.65039062 1.75554687 4.74609375 1.9375 5.875 C2.19853516 7.51082031 2.19853516 7.51082031 2.46484375 9.1796875 C2.85551159 11.93821546 2.85551159 11.93821546 4 14 C2.68 13.67 1.36 13.34 0 13 C0 8.71 0 4.42 0 0 Z " fill="#A4E0E0" transform="translate(181,240)"/>
<path d="M0 0 C2.09715785 3.14573677 2.52004559 5.01456251 3.125 8.6875 C3.29257812 9.68136719 3.46015625 10.67523438 3.6328125 11.69921875 C3.75398438 12.45847656 3.87515625 13.21773437 4 14 C3.01 13.67 2.02 13.34 1 13 C0.67 8.71 0.34 4.42 0 0 Z " fill="#487C81" transform="translate(461,194)"/>
<path d="M0 0 C-5.29230769 4.06153846 -5.29230769 4.06153846 -8.875 3.75 C-9.57625 3.5025 -10.2775 3.255 -11 3 C-7.18178484 -0.02823961 -4.81391924 -1.49397494 0 0 Z " fill="#176367" transform="translate(189,171)"/>
<path d="M0 0 C2.64465038 3.1254959 3.84414715 6.08788267 5 10 C3.68 9.67 2.36 9.34 1 9 C0.67 6.03 0.34 3.06 0 0 Z " fill="#3A7377" transform="translate(444,149)"/>
<path d="M0 0 C3.45925163 1.2491742 6.14693203 2.67527795 9 5 C5.6875 5.25 5.6875 5.25 2 5 C0.0625 3 0.0625 3 -1 1 C-0.67 0.67 -0.34 0.34 0 0 Z " fill="#447D7D" transform="translate(355,58)"/>
<path d="M0 0 C1.4800841 0.11362262 2.95910074 0.24122908 4.4375 0.375 C5.26121094 0.44460938 6.08492187 0.51421875 6.93359375 0.5859375 C7.95646484 0.79089844 7.95646484 0.79089844 9 1 C9.33 1.66 9.66 2.32 10 3 C3.375 3.125 3.375 3.125 0 2 C0 1.34 0 0.68 0 0 Z " fill="#2A6665" transform="translate(193,460)"/>
<path d="M0 0 C-3.465 2.97 -3.465 2.97 -7 6 C-6.625 3.0625 -6.625 3.0625 -6 0 C-4 -1 -4 -1 0 0 Z " fill="#377A7B" transform="translate(416,394)"/>
<path d="M0 0 C1.32 0.33 2.64 0.66 4 1 C1.36 2.98 -1.28 4.96 -4 7 C-4 6.01 -4 5.02 -4 4 C-3.34 4 -2.68 4 -2 4 C-1.34 2.68 -0.68 1.36 0 0 Z " fill="#196466" transform="translate(246,356)"/>
<path d="M0 0 C2.475 0.495 2.475 0.495 5 1 C3.25 6.75 3.25 6.75 1 9 C1.020625 8.071875 1.04125 7.14375 1.0625 6.1875 C1.15769604 2.97713989 1.15769604 2.97713989 0 0 Z " fill="#A0D8D6" transform="translate(265,311)"/>
<path d="M0 0 C3.36720387 1.39332574 4.9859524 2.9789286 7 6 C4.125 5.75 4.125 5.75 1 5 C-0.375 2.9375 -0.375 2.9375 -1 1 C-0.67 0.67 -0.34 0.34 0 0 Z " fill="#468489" transform="translate(400,91)"/>
<path d="M0 0 C0.66 0 1.32 0 2 0 C0.49776416 4.20626034 -2.28550034 5.73900021 -6 8 C-6 7.01 -6 6.02 -6 5 C-5.34 5 -4.68 5 -4 5 C-3.67 4.01 -3.34 3.02 -3 2 C-2.01 2 -1.02 2 0 2 C0 1.34 0 0.68 0 0 Z " fill="#367273" transform="translate(390,415)"/>
<path d="M0 0 C0.99 0.33 1.98 0.66 3 1 C3.33 1.99 3.66 2.98 4 4 C2.35 4.33 0.7 4.66 -1 5 C-1.33 5.99 -1.66 6.98 -2 8 C-2.66 7.67 -3.32 7.34 -4 7 C-2.68 4.69 -1.36 2.38 0 0 Z " fill="#97D0CB" transform="translate(137,255)"/>
<path d="M0 0 C0.66 0.99 1.32 1.98 2 3 C1 4 1 4 -1.06640625 4.09765625 C-1.89011719 4.08605469 -2.71382813 4.07445312 -3.5625 4.0625 C-4.38878906 4.05347656 -5.21507812 4.04445312 -6.06640625 4.03515625 C-6.70449219 4.02355469 -7.34257812 4.01195312 -8 4 C-5.33440687 2.22293791 -2.9719385 1.12451727 0 0 Z " fill="#1C686C" transform="translate(310,226)"/>
<path d="M0 0 C2.5 2.3125 2.5 2.3125 5 5 C5 5.99 5 6.98 5 8 C3.0625 7.375 3.0625 7.375 1 6 C0.25 2.875 0.25 2.875 0 0 Z " fill="#96CFCD" transform="translate(307,152)"/>
<path d="M0 0 C-1.11575573 3.34726719 -1.51344622 3.62079748 -4.4375 5.25 C-6.2009375 6.11625 -6.2009375 6.11625 -8 7 C-8.66 6.67 -9.32 6.34 -10 6 C-8.71283353 4.99421411 -7.42011342 3.99553202 -6.125 3 C-5.40570313 2.443125 -4.68640625 1.88625 -3.9453125 1.3125 C-2 0 -2 0 0 0 Z " fill="#91CECC" transform="translate(149,149)"/>
<path d="M0 0 C0.66 0.33 1.32 0.66 2 1 C1.67 3.97 1.34 6.94 1 10 C0.34 9.67 -0.32 9.34 -1 9 C-0.67 6.03 -0.34 3.06 0 0 Z " fill="#2D6B6E" transform="translate(462,293)"/>
<path d="M0 0 C0.625 1.8125 0.625 1.8125 1 4 C0.01 5.485 0.01 5.485 -1 7 C-2.32 6.34 -3.64 5.68 -5 5 C-3.35 3.35 -1.7 1.7 0 0 Z " fill="#4A868B" transform="translate(94,95)"/>
<path d="M0 0 C-1.1858237 3.37503669 -2.27573689 5.64722731 -5 8 C-5.36625971 3.48279689 -5.36625971 3.48279689 -3.625 1.1875 C-2 0 -2 0 0 0 Z " fill="#306C6F" transform="translate(431,372)"/>
<path d="M0 0 C0.66 0.99 1.32 1.98 2 3 C-1.75 8.875 -1.75 8.875 -4 10 C-2.8905928 6.51329166 -1.73662334 3.22515763 0 0 Z " fill="#226B6E" transform="translate(366,273)"/>
<path d="M0 0 C0.33 0.66 0.66 1.32 1 2 C0 5 0 5 -3.0625 6.6875 C-4.031875 7.120625 -5.00125 7.55375 -6 8 C-6.33 7.34 -6.66 6.68 -7 6 C-4.69 4.02 -2.38 2.04 0 0 Z " fill="#9EDAD7" transform="translate(364,210)"/>
<path d="M0 0 C1.32 0.33 2.64 0.66 4 1 C4.625 3.375 4.625 3.375 5 6 C4.34 6.66 3.68 7.32 3 8 C0 2.25 0 2.25 0 0 Z " fill="#9BD4D1" transform="translate(282,186)"/>
<path d="M0 0 C0.66 0 1.32 0 2 0 C3.06775224 1.96466413 4.06553465 3.96855359 5 6 C4.67 6.66 4.34 7.32 4 8 C1.10067643 5.60490662 0.49831724 3.68754757 0 0 Z " fill="#437E81" transform="translate(449,162)"/>
<path d="M0 0 C2.79872437 2.52788007 4.45773019 4.20411134 5 8 C3.0625 7.25 3.0625 7.25 1 6 C0.20124132 3.86997684 0 2.26695035 0 0 Z " fill="#619495" transform="translate(433,130)"/>
<path d="M0 0 C0.99 0.33 1.98 0.66 3 1 C3 1.99 3 2.98 3 4 C3.33 4.66 3.66 5.32 4 6 C3.01 6.33 2.02 6.66 1 7 C0.34 5.02 -0.32 3.04 -1 1 C-0.67 0.67 -0.34 0.34 0 0 Z " fill="#1A686C" transform="translate(356,434)"/>
<path d="M0 0 C0.66 0 1.32 0 2 0 C2 0.66 2 1.32 2 2 C2.99 2.33 3.98 2.66 5 3 C6 5 6 5 6 8 C1.125 3.375 1.125 3.375 0 0 Z " fill="#568E91" transform="translate(71,376)"/>
<path d="M0 0 C-4.43076923 3.07692308 -4.43076923 3.07692308 -7.3125 2.6875 C-8.1478125 2.3471875 -8.1478125 2.3471875 -9 2 C-4.13793103 -1.24137931 -4.13793103 -1.24137931 0 0 Z " fill="#176367" transform="translate(246,322)"/>
<path d="M0 0 C0.99 0.33 1.98 0.66 3 1 C1.6875 3 1.6875 3 0 5 C-0.99 5 -1.98 5 -3 5 C-1.125 1.125 -1.125 1.125 0 0 Z " fill="#1A6669" transform="translate(346,302)"/>
<path d="M0 0 C0.99 0 1.98 0 3 0 C2.6875 1.875 2.6875 1.875 2 4 C1.01 4.66 0.02 5.32 -1 6 C-1.042721 4.33388095 -1.04063832 2.66617115 -1 1 C-0.67 0.67 -0.34 0.34 0 0 Z " fill="#136366" transform="translate(141,245)"/>
<path d="M0 0 C0.33 0 0.66 0 1 0 C1 1.98 1 3.96 1 6 C-0.65 6.33 -2.3 6.66 -4 7 C-2.68 4.69 -1.36 2.38 0 0 Z " fill="#89CDCC" transform="translate(371,200)"/>
<path d="M0 0 C1.31554985 0.4495045 2.62738358 0.90989716 3.9375 1.375 C5.03384766 1.75785156 5.03384766 1.75785156 6.15234375 2.1484375 C8 3 8 3 9 5 C5.26512223 4.5020163 3.18762365 4.12508244 0 2 C0 1.34 0 0.68 0 0 Z " fill="#1F696C" transform="translate(259,168)"/>
<path d="M0 0 C0.66 0.33 1.32 0.66 2 1 C1.3125 2.9375 1.3125 2.9375 0 5 C-2.625 5.75 -2.625 5.75 -5 6 C-3.35 4.02 -1.7 2.04 0 0 Z " fill="#5E9497" transform="translate(100,89)"/>
</svg>
